<svg xmlns="http://www.w3.org/2000/svg" width="140" height="28" fill="none" viewBox="0 0 140 28">
    <path fill="#00F" fill-rule="evenodd" d="M30.68 25.7c2.374 1.014 4.935 1.516 7.517 1.475 6.443 0 8.942-3.407 8.942-8.48V7.105h-3.758l-.026 1.76h-.058c-1.502-1.371-3.467-2.124-5.5-2.107-4.807 0-8.19 3.274-8.19 7.274 0 4.217 2.794 7.249 7.92 7.249 2.105-.052 4.134-.797 5.77-2.121v.325c0 2.777-2.09 4.656-5.422 4.656-1.915-.017-3.8-.486-5.5-1.368L30.68 25.7zm2.786-11.68c0-2.332 1.914-4.185 4.84-4.185 2.602 0 4.991 1.725 4.991 4.168 0 2.442-2.39 4.163-4.99 4.163-2.931 0-4.841-1.813-4.841-4.146zM139.079 15.688c.026-.303.053-.862.053-1.184 0-5.206-4.106-7.758-8.041-7.758-5.1 0-8.753 3.221-8.753 7.437 0 4.643 3.635 7.438 8.916 7.438 2.358.027 4.688-.517 6.791-1.585l-1.585-2.794c-1.517.89-3.236 1.38-4.995 1.426-2.469 0-4.348-1.1-4.99-2.98h12.604zm-8.269-5.99c2.147 0 3.974 1.21 4.216 3.306h-8.701c.484-1.985 2.121-3.305 4.485-3.305zM76.964 14.183c0 4.295 3.653 7.438 8.97 7.438 5.333 0 8.964-3.169 8.964-7.438s-3.648-7.437-8.965-7.437c-5.316 0-8.969 3.142-8.969 7.437zm3.895 0c0-2.522 1.959-4.348 5.074-4.348 3.134 0 5.101 1.826 5.101 4.348s-1.985 4.348-5.1 4.348c-3.116 0-5.075-1.826-5.075-4.348zM75.354 14.183c0-4.132-3.275-7.437-8.217-7.437-2.018-.005-3.964.749-5.453 2.112h-.052l-.053-1.76H57.82v19.729h3.842v-7.328c1.369 1.396 3.543 2.122 5.475 2.122 4.942 0 8.217-3.305 8.217-7.438zm-3.89.022c0 2.447-1.761 4.326-4.807 4.326-2.768 0-4.99-1.738-4.99-4.326 0-2.588 2.227-4.348 4.995-4.348 3.04 0 4.801 1.901 4.801 4.348z" clip-rule="evenodd"/>
    <path fill="#00F" d="M109.558 8.735l-2.007 2.521c-1.4-.92-3.022-1.45-4.696-1.531-1.32 0-2.363.352-2.363 1.184 0 2.521 9.154 1.126 9.154 6.161 0 2.764-2.601 4.537-6.685 4.537-2.556-.047-5.04-.851-7.139-2.31l2.148-2.737c1.421 1.1 3.732 2.037 5.475 2.037 1.21 0 2.442-.238 2.442-1.206 0-2.495-9.18-.831-9.18-6.121 0-2.522 2.737-4.538 6.161-4.538 2.126.013 4.916.634 6.69 2.003zM120.234 17.431l1.422 3.08c-1.239.701-2.631 1.09-4.054 1.132-3.489 0-4.4-2.2-4.4-5.37v-5.875h-2.012v-3.3h2.012V2.763h3.868v4.352h3.917v3.3h-3.917v5.326c0 1.422.106 2.416 1.369 2.416.657-.058 1.282-.311 1.795-.726z"/>
    <path fill="#00F" fill-rule="evenodd" d="M8.477 21.414c4.511 0 7.517-.78 9.964-3.248 1.531-1.54 2.385-3.908 2.385-6.293 0-2.386-.858-4.749-2.385-6.28-2.447-2.443-5.453-3.248-9.964-3.248-2.473 0-5.158.052-7.921.132v18.8c2.741.084 5.426.137 7.921.137zm-.03-15.408c2.724 0 4.994.07 6.684 1.76 1.06 1.1 1.631 2.58 1.585 4.107.047 1.527-.524 3.01-1.585 4.11-1.69 1.69-3.947 1.796-6.685 1.796-1.167 0-2.247-.021-3.45-.044l-.466-.01V6.034c1.395-.027 2.596-.027 3.916-.027zM54.577 2.507c-.043-1.28-1.11-2.287-2.39-2.257-.83-.037-1.612.385-2.038 1.098-.426.713-.426 1.602 0 2.315.426.713 1.209 1.134 2.038 1.098 1.28.03 2.344-.975 2.39-2.254zm-4.295 4.59h3.837V21.27h-3.837V7.098zM27.727 2.507c-.043-1.28-1.11-2.287-2.39-2.257-.83-.037-1.612.385-2.038 1.098-.426.713-.426 1.602 0 2.315.426.713 1.209 1.134 2.038 1.098 1.28.03 2.345-.975 2.39-2.254zm-4.295 4.59h3.842V21.27h-3.842V7.098z" clip-rule="evenodd"/>
</svg>